<svg id="Camada_1" data-name="Camada 1" xmlns="http://www.w3.org/2000/svg" xmlns:xlink="http://www.w3.org/1999/xlink" width="400" height="221.92" viewBox="0 0 400 221.92"><defs><style>.cls-1{stroke:#bac6f2;stroke-miterlimit:10;stroke-width:1.86px;fill:url(#Gradiente_sem_nome_3);}.cls-2{fill:#bac6f2;}.cls-3{fill:#fff;}.cls-4{fill:#fbd56f;}.cls-5{opacity:0.1;isolation:isolate;}.cls-6{fill:#3f51b5;}.cls-7{fill:#de8e68;}.cls-8{fill:#56cad8;}.cls-9{fill:#74d5de;}.cls-10{fill:#fcc486;}.cls-11{fill:#fed385;}.cls-12{fill:#fed892;}.cls-13{fill:#d37c59;}.cls-14{fill:#fd8369;}</style><linearGradient id="Gradiente_sem_nome_3" x1="1029.35" y1="2448.36" x2="1029.35" y2="2448.79" gradientTransform="matrix(930.5, 0, 0, -395.51, -957610.23, 968580.61)" gradientUnits="userSpaceOnUse"><stop offset="0" stop-color="#fff"/><stop offset="1" stop-color="#bac6f2"/></linearGradient></defs><title>ilustras mobills 2019</title><g id="Grupo_2509" data-name="Grupo 2509"><g id="bg14"><path id="Caminho_552" data-name="Caminho 552" class="cls-1" d="M23,229.34s3.35-47,29.62-42.3,23.11,28.32,36.52,25.34,14.51-34.95,19.75-73c4.55-33,22.66-22.93,26-12.27,2.84,8.93,4,37.05,14.76,38.91s14.54-19.38,15.28-29.81,4.47-52.91,18.07-53.47c12.86-.53,18.45,18.44,18.45,54.59S203,196.92,209,206.61s13.79,7.08,16.21,5.77c3-1.62,12.11-16.95,14.35-55S256.66,125,260,130.59s12.48,36.33,23.66,35.59,14.35-8,16.21-25.16S304.51,81.44,318.7,82c14.7.54,20.61,67.68,20.36,87.86-.31,25.46,18.77,55.6,30.69,55.6"/><circle id="Elipse_372" data-name="Elipse 372" class="cls-2" cx="88.23" cy="212.2" r="4.84"/><circle id="Elipse_374" data-name="Elipse 374" class="cls-2" cx="152.69" cy="165.25" r="4.84"/><circle id="Elipse_375" data-name="Elipse 375" class="cls-2" cx="122.91" cy="117.21" r="4.84"/><circle id="Elipse_376" data-name="Elipse 376" class="cls-2" cx="184.81" cy="83.22" r="4.84"/><circle id="Elipse_377" data-name="Elipse 377" class="cls-2" cx="253.68" cy="127.61" r="4.84"/><circle id="Elipse_378" data-name="Elipse 378" class="cls-2" cx="286.77" cy="166.07" r="4.84"/><circle id="Elipse_379" data-name="Elipse 379" class="cls-2" cx="317.84" cy="82.69" r="4.84"/><circle id="Elipse_380" data-name="Elipse 380" class="cls-2" cx="369.6" cy="225.83" r="4.84"/><circle id="Elipse_381" data-name="Elipse 381" class="cls-2" cx="219.77" cy="212.57" r="4.84"/><circle id="Elipse_382" data-name="Elipse 382" class="cls-3" cx="77.72" cy="64.42" r="17.84"/><circle id="Elipse_383" data-name="Elipse 383" class="cls-3" cx="95.54" cy="65.72" r="12.89"/><circle id="Elipse_384" data-name="Elipse 384" class="cls-3" cx="289.66" cy="39.77" r="17.84"/><circle id="Elipse_385" data-name="Elipse 385" class="cls-3" cx="307.48" cy="41.07" r="12.89"/><path id="Caminho_553" data-name="Caminho 553" class="cls-2" d="M349.9,121.93l8.86-12.66c1-1.72,3.67-1.57,5-.1l8.71,11.92c1.79,2,.84,5.72-1.84,5.77l-17.61.29a3.52,3.52,0,0,1-3.11-5.22Z"/><path id="Caminho_554" data-name="Caminho 554" class="cls-2" d="M33.9,130.75,25,143.4c-1,1.71-3.67,1.56-5,.09l-8.69-12c-1.79-2-.84-5.72,1.86-5.76l17.61-.27A3.52,3.52,0,0,1,34.36,129a3.58,3.58,0,0,1-.46,1.76Z"/></g><g id="undraw_savings_hjfl" data-name="undraw savings hjfl"><path id="Caminho_626" data-name="Caminho 626" class="cls-4" d="M159.81,210.18l-5.07-2.83s-2.38,9.9-1.6,16.94a3.54,3.54,0,0,0,2.6,3c11.67,2.89,67.22,15.23,105.43-2.14a3.53,3.53,0,0,0,2-2.83c.48-4.33-1.18-13.27-1.85-15C260,203.6,159.81,210.18,159.81,210.18Z"/><path id="Caminho_627" data-name="Caminho 627" class="cls-5" d="M159.81,210.18l-5.07-2.83s-2.38,9.9-1.6,16.94a3.54,3.54,0,0,0,2.6,3c11.67,2.89,67.22,15.23,105.43-2.14a3.53,3.53,0,0,0,2-2.83c.48-4.33-1.18-13.27-1.85-15C260,203.6,159.81,210.18,159.81,210.18Z"/><ellipse id="Elipse_401" data-name="Elipse 401" class="cls-4" cx="208.07" cy="207.35" rx="53.33" ry="12.03"/><path id="Caminho_628" data-name="Caminho 628" class="cls-4" d="M177.81,186.87,172.74,184s-2.36,9.9-1.59,16.94a3.53,3.53,0,0,0,2.59,3c11.67,2.89,67.22,15.22,105.42-2.15a3.49,3.49,0,0,0,2-2.81c.47-4.33-1.19-13.28-1.86-15C278,180.29,177.81,186.87,177.81,186.87Z"/><path id="Caminho_629" data-name="Caminho 629" class="cls-5" d="M177.81,186.87,172.74,184s-2.36,9.9-1.59,16.94a3.53,3.53,0,0,0,2.59,3c11.67,2.89,67.22,15.22,105.42-2.15a3.49,3.49,0,0,0,2-2.81c.47-4.33-1.19-13.28-1.86-15C278,180.29,177.81,186.87,177.81,186.87Z"/><ellipse id="Elipse_402" data-name="Elipse 402" class="cls-4" cx="226.07" cy="182.96" rx="53.33" ry="12.03"/><path id="Caminho_630" data-name="Caminho 630" class="cls-4" d="M157.86,161.2l-5.06-2.82s-2.37,9.89-1.59,16.94a3.5,3.5,0,0,0,2.59,3c11.68,2.9,67.23,15.24,105.44-2.15a3.45,3.45,0,0,0,2-2.81c.47-4.33-1.19-13.27-1.85-15C258,154.71,157.86,161.2,157.86,161.2Z"/><path id="Caminho_631" data-name="Caminho 631" class="cls-5" d="M157.86,161.2l-5.06-2.82s-2.37,9.89-1.59,16.94a3.5,3.5,0,0,0,2.59,3c11.68,2.9,67.23,15.24,105.44-2.15a3.45,3.45,0,0,0,2-2.81c.47-4.33-1.19-13.27-1.85-15C258,154.71,157.86,161.2,157.86,161.2Z"/><ellipse id="Elipse_403" data-name="Elipse 403" class="cls-4" cx="206.13" cy="158.02" rx="53.33" ry="12.03"/><path id="Caminho_632" data-name="Caminho 632" class="cls-4" d="M202.75,141.18l-5.08-2.82s-2.37,9.89-1.59,16.87a3.5,3.5,0,0,0,2.59,3c11.68,2.91,67.23,15.23,105.44-2.14a3.45,3.45,0,0,0,2-2.81c.47-4.34-1.18-13.27-1.84-15C302.9,134.69,202.75,141.18,202.75,141.18Z"/><path id="Caminho_633" data-name="Caminho 633" class="cls-5" d="M202.75,141.18l-5.08-2.82s-2.37,9.89-1.59,16.87a3.5,3.5,0,0,0,2.59,3c11.68,2.91,67.23,15.23,105.44-2.14a3.45,3.45,0,0,0,2-2.81c.47-4.34-1.18-13.27-1.84-15C302.9,134.69,202.75,141.18,202.75,141.18Z"/><ellipse id="Elipse_404" data-name="Elipse 404" class="cls-4" cx="251" cy="138" rx="53.33" ry="12.03"/><path id="Caminho_634" data-name="Caminho 634" class="cls-4" d="M172.42,127.72l-5.06-2.81s-2.37,9.88-1.6,16.94a3.51,3.51,0,0,0,2.6,3c11.67,2.91,67.22,15.23,105.43-2.14a3.48,3.48,0,0,0,2-2.81c.47-4.34-1.19-13.27-1.86-15C272.59,121.16,172.42,127.72,172.42,127.72Z"/><path id="Caminho_635" data-name="Caminho 635" class="cls-5" d="M172.42,127.72l-5.06-2.81s-2.37,9.88-1.6,16.94a3.51,3.51,0,0,0,2.6,3c11.67,2.91,67.22,15.23,105.43-2.14a3.48,3.48,0,0,0,2-2.81c.47-4.34-1.19-13.27-1.86-15C272.59,121.16,172.42,127.72,172.42,127.72Z"/><ellipse id="Elipse_405" data-name="Elipse 405" class="cls-4" cx="220.69" cy="124.54" rx="53.33" ry="12.03"/><path id="Caminho_636" data-name="Caminho 636" class="cls-4" d="M192.67,101.72l-5.07-2.81s-2.38,9.88-1.6,16.94a3.53,3.53,0,0,0,2.59,3c11.68,2.89,67.23,15.23,105.43-2.16a3.48,3.48,0,0,0,2-2.81c.47-4.33-1.19-13.27-1.85-15C292.82,95.16,192.67,101.72,192.67,101.72Z"/><path id="Caminho_637" data-name="Caminho 637" class="cls-5" d="M192.67,101.72l-5.07-2.81s-2.38,9.88-1.6,16.94a3.53,3.53,0,0,0,2.59,3c11.68,2.89,67.23,15.23,105.43-2.16a3.48,3.48,0,0,0,2-2.81c.47-4.33-1.19-13.27-1.85-15C292.82,95.16,192.67,101.72,192.67,101.72Z"/><ellipse id="Elipse_406" data-name="Elipse 406" class="cls-4" cx="240.92" cy="98.56" rx="53.33" ry="12.03"/><path id="Caminho_638" data-name="Caminho 638" class="cls-4" d="M202.64,70.87l-5.06-2.82S195.21,77.94,196,85a3.51,3.51,0,0,0,2.59,3c11.68,2.89,67.23,15.23,105.44-2.15a3.47,3.47,0,0,0,2-2.82c.47-4.33-1.19-13.27-1.85-15C302.81,64.3,202.64,70.87,202.64,70.87Z"/><path id="Caminho_639" data-name="Caminho 639" class="cls-5" d="M202.64,70.87l-5.06-2.82S195.21,77.94,196,85a3.51,3.51,0,0,0,2.59,3c11.68,2.89,67.23,15.23,105.44-2.15a3.47,3.47,0,0,0,2-2.82c.47-4.33-1.19-13.27-1.85-15C302.81,64.3,202.64,70.87,202.64,70.87Z"/><ellipse id="Elipse_407" data-name="Elipse 407" class="cls-4" cx="250.91" cy="67.03" rx="53.33" ry="12.03"/></g><g id="revenue-graph-colour"><rect id="Retângulo_1845" data-name="Retângulo 1845" class="cls-6" x="109.93" y="193.54" width="25.92" height="30.81"/><rect id="Retângulo_1846" data-name="Retângulo 1846" class="cls-6" x="143.41" y="170.23" width="25.92" height="54.12"/><rect id="Retângulo_1847" data-name="Retângulo 1847" class="cls-6" x="176.9" y="143.43" width="25.92" height="80.92"/><rect id="Retângulo_1848" data-name="Retângulo 1848" class="cls-7" x="152.95" y="172.54" width="3.01" height="2.21"/><rect id="Retângulo_1849" data-name="Retângulo 1849" class="cls-7" x="185.97" y="144" width="3.01" height="2.21"/><path id="Caminho_539" data-name="Caminho 539" class="cls-8" d="M173.41,109.78c1.8,0,16.26,2,22.59,5.29-.87,4.24-6.56,29.2-6.56,29.2H185.9s-1.34-21-1.62-20.84c-1.92,1-9.52,3.47-17.65,3.59"/><path id="Caminho_540" data-name="Caminho 540" class="cls-9" d="M173.41,109.78l-17.34,63.05H153V109.78"/><path id="Caminho_541" data-name="Caminho 541" class="cls-7" d="M176.62,83.28a18.15,18.15,0,0,1,4.4,3.79c4.89-6.09,13-12.24,13.62-12.95s.87-4.67.87-5.53,1.19-3.17,2.34-3.17V75.79s-13.5,18.93-15.72,18.93c-1.45,0-8.57-3.13-9.56-4.07"/><path id="Caminho_542" data-name="Caminho 542" class="cls-10" d="M165.62,79.79c1.78-2.88,12.08,1.59,12.08,3s-3.82,7.72-5.53,7.63C170.81,90.33,163.78,82.79,165.62,79.79Z"/><path id="Caminho_543" data-name="Caminho 543" class="cls-11" d="M163.12,75.61c13.08,0,12.35,32.58,10.29,34.17s-19,2.36-20.57,0S150.69,75.61,163.12,75.61Z"/><path id="Caminho_544" data-name="Caminho 544" class="cls-7" d="M149,85.89c-2.32.73-8.3,12-8.3,13.72,0,3.61,12.17,19.49,13.72,19.49.65-1.12,1.68-3.45,1.68-3.45s-7.31-13.63-8.65-15.39c1.16-1.08,5.37-6.75,6.06-8.52s.43-5.54.43-5.54Z"/><path id="Caminho_545" data-name="Caminho 545" class="cls-12" d="M157.32,79.1c3,1.62-.95,12.13-2.33,12.22s-7.91-3.41-7.91-5.12C147.08,84.82,154.23,77.4,157.32,79.1Z"/><path id="Caminho_546" data-name="Caminho 546" d="M153,174.27v2.67h8v-1l-4.89-1.7Z"/><path id="Caminho_547" data-name="Caminho 547" d="M185.84,146v2.66h8v-1L189,146Z"/><path id="Caminho_548" data-name="Caminho 548" class="cls-13" d="M166.37,69.2h-5.18v7.35c0,1.83,5.18,1.86,5.18,0Z"/><path id="Caminho_549" data-name="Caminho 549" class="cls-7" d="M170.15,65.83c-.91-3.9-3.81-6.57-6.47-5.95-2.29.54-3.66,3.31-3.43,6.54a1.7,1.7,0,0,0,.47,3.33,1.63,1.63,0,0,0,.31,0c1.24,3,3.68,4.84,5.95,4.31C169.64,73.41,171.07,69.74,170.15,65.83Z"/><path id="Caminho_550" data-name="Caminho 550" class="cls-14" d="M161.57,67.66c.69,0,.8-.94.8-1.78a2.77,2.77,0,0,1,1.72-2.32,11.82,11.82,0,0,0,2.5-.81c.72-.39,1.58-1,1.58-1A11.5,11.5,0,0,1,169,63c.66-.18,4.1-1,4.1-3.47,0-1.62-1.36-1.84-2-2.34S170.77,55,169,55c-1.6,0-2.39,1.68-3.41,2.33-1.24.78-3.67.15-5.27,1.8-.78.8-1,2.77-1.44,3.49-.66,1-1.81,1.26-1.81,2.76,0,1.09.93,2.94,2.05,3.21,0-1.08.39-2.12,1.2-2.12S160.57,67.66,161.57,67.66Z"/></g></g></svg>