<svg width="400" height="140" viewBox="0 0 400 140" fill="none" xmlns="http://www.w3.org/2000/svg">
<path d="M0.399902 24.0001H18.6999L18.0999 41.8001H18.2999C20.9999 31.5001 24.0999 23.1001 38.6999 23.1001C50.1999 23.1001 57.5999 29.0001 58.8999 38.7001H58.9999C61.3999 29.0001 67.9999 23.1001 79.4999 23.1001C92.4999 23.1001 99.8999 31.3001 99.8999 45.3001V83.8001H81.4999V49.6001C81.4999 42.6001 77.8999 38.3001 71.5999 38.3001C65.2999 38.3001 59.2999 43.9001 59.2999 54.9001V83.8001H40.8999V49.6001C40.8999 42.6001 37.2999 38.3001 30.9999 38.3001C24.6999 38.3001 18.6999 44.0001 18.6999 55.2001V83.8001H0.399902V24.0001Z" fill="#6115DD"/>
<path d="M107.4 54.0001C107.4 34.6001 120.2 23.1001 139.9 23.1001C159.6 23.1001 172.4 34.6001 172.4 54.0001C172.4 73.4001 159.6 84.8001 139.9 84.8001C120.2 84.8001 107.4 73.4001 107.4 54.0001ZM154.1 54.0001C154.1 43.4001 148.9 37.1001 139.9 37.1001C130.9 37.1001 125.8 43.4001 125.8 54.0001C125.8 64.6001 131 70.7001 139.9 70.7001C148.8 70.7001 154.1 64.6001 154.1 54.0001Z" fill="#6115DD"/>
<path d="M198.7 71.4H198.6C198.7 74.9 198.9 80.9 199.2 83.8H180.8V0H199.2V25C199.2 27.8 198.9 36.2 198.8 39.1H199C201.3 31.2 209 23.1 219.6 23.1C236.6 23.1 246.7 34.1 246.7 52.7C246.7 72.9 236.5 84.8 219.5 84.8C208.6 84.8 200.9 79 198.7 71.4ZM228.3 53.3C228.3 43.2 223.2 37.1 214.6 37.1C206 37.1 199.2 43.3 199.2 53.6V56.3C199.2 65.4 205 70.7 214.8 70.7C224.6 70.7 228.3 64.3 228.3 53.3Z" fill="#6115DD"/>
<path d="M255.3 24H273.6V83.8H255.3V24Z" fill="#6115DD"/>
<path d="M283.6 0H301.9V83.8H283.6V0Z" fill="#6115DD"/>
<path d="M311.6 0H330V83.8H311.6V0Z" fill="#6115DD"/>
<path d="M338.3 63.7001H354.8C354.8 69.3001 357.6 72.9001 368.1 72.9001C378.6 72.9001 381 70.1001 381 65.8001C381 63.6001 379.9 61.9001 376.8 61.2001C373.7 60.5001 368.8 60.0001 362.9 59.5001C354.3 58.8001 347.6 57.4001 344 54.9001C342.198 53.5343 340.743 51.7635 339.753 49.7308C338.763 47.6982 338.265 45.4609 338.3 43.2001C338.3 30.2001 351.6 23.1001 368.2 23.1001C387.8 23.1001 396.7 30.6001 396.7 44.5001H380.5C380.4 38.2001 377.5 34.9001 368.4 34.9001C359.3 34.9001 356.6 37.7001 356.6 41.8001C356.6 45.9001 357.6 46.3001 361 47.1001C364.4 47.9001 369.3 48.4001 375.7 49.0001C382.1 49.6001 388.3 50.4001 392.8 53.0001C394.84 54.2131 396.525 55.9426 397.684 58.0143C398.842 60.086 399.435 62.4266 399.4 64.8001C399.4 77.4001 388.6 84.8001 368.2 84.8001C347.8 84.8001 338.3 75.8001 338.3 63.7001Z" fill="#6115DD"/>
<path d="M261.9 126.5C261.9 127.9 262 129.7 262 130.7H257.6V103.2H262V115.5C262.8 112.6 265.5 110.8 269.4 110.8C275 110.8 278.4 114.5 278.4 120.6C278.4 126.7 275 131 269.4 131C265.4 131 262.7 129.3 261.9 126.5ZM274 120.7C274 116.8 271.9 114.5 268.4 114.5C264.9 114.5 262 116.9 262 120.9V121.9C262 125.3 264.5 127.4 268.3 127.4C272.1 127.4 274 124.8 274 120.7Z" fill="#6115DD"/>
<path d="M282.2 138.5V135C282.982 135.224 283.787 135.358 284.6 135.4C286.7 135.4 287.6 134.3 289.1 130.7H288L279.5 111.1H284.7L290.9 126.2H291L296.5 111.1H300.8L293.4 131.1C291.2 137 289.3 139 285.4 139C284.313 139.018 283.23 138.849 282.2 138.5Z" fill="#6115DD"/>
<path d="M319.6 108.5H311.6V104.6H332.5V108.5H324.4V130.7H319.6V108.5Z" fill="#6115DD"/>
<path d="M332 120.9C332 114.7 336 110.8 342.2 110.8C348.4 110.8 352.5 114.7 352.5 120.9C352.5 127.1 348.5 131 342.2 131C335.9 131 332 127.2 332 120.9ZM348 120.9C348 116.9 345.8 114.5 342.2 114.5C338.6 114.5 336.4 116.9 336.4 120.9C336.4 124.9 338.6 127.4 342.2 127.4C345.8 127.4 348 124.9 348 120.9Z" fill="#6115DD"/>
<path d="M356.3 111.1H360.7L360.5 116.7H360.6C361.5 113.2 363.5 110.8 367.6 110.8C371.7 110.8 374.1 113.6 374.1 118.5C374.095 119.702 374.028 120.904 373.9 122.1H369.9C370.024 121.205 370.091 120.303 370.1 119.4C370.1 116.2 368.8 114.6 366.2 114.6C362.8 114.6 360.7 117.5 360.7 122.1V130.7H356.3V111.1Z" fill="#6115DD"/>
<path d="M377.3 120.9C377.3 114.7 381.3 110.8 387.6 110.8C393.9 110.8 397.8 114.7 397.8 120.9C397.8 127.1 393.8 131 387.6 131C381.4 131 377.3 127.2 377.3 120.9ZM393.4 120.9C393.4 116.9 391.2 114.5 387.6 114.5C384 114.5 381.8 116.9 381.8 120.9C381.8 124.9 384 127.4 387.6 127.4C391.2 127.4 393.4 124.9 393.4 120.9Z" fill="#6115DD"/>
</svg>
